<svg width="121" height="24" viewBox="0 0 121 24" fill="none" xmlns="http://www.w3.org/2000/svg">
<path fill-rule="evenodd" clip-rule="evenodd" d="M28.8794 15.2922V4.86709H30.6254C31.3483 4.86709 32.0294 4.99586 32.6687 5.2534C33.3081 5.51093 33.8661 5.87258 34.342 6.33807C34.8182 6.80356 35.1951 7.35472 35.473 7.99181C35.7506 8.62917 35.8897 9.32727 35.8897 10.0864C35.8897 10.8003 35.7683 11.4603 35.5259 12.0657C35.2833 12.6714 34.9482 13.1976 34.5206 13.6452C34.0928 14.0925 33.5925 14.4539 33.0193 14.7296C32.4461 15.0053 31.8291 15.1702 31.1677 15.2244C30.9737 15.2426 30.7794 15.2582 30.5856 15.2719C30.3916 15.2854 30.1933 15.2922 29.9904 15.2922H28.8794ZM40.6255 12.8315C40.8636 11.9685 40.9827 11.058 40.9827 10.0998C40.9827 9.1509 40.8613 8.24251 40.6189 7.37488C40.3763 6.50724 40.0368 5.69854 39.6004 4.94826C39.164 4.19823 38.6369 3.52038 38.0198 2.91469C37.4025 2.30927 36.7214 1.78952 35.9762 1.35571C35.231 0.921892 34.4288 0.587768 33.5689 0.352557C32.7092 0.117605 31.8163 0 30.8905 0H24.3696C24.1667 0 24.0147 0.0589325 23.9134 0.176278C23.8118 0.293884 23.7614 0.447576 23.7614 0.637354V19.576C23.7614 19.8112 23.823 19.9646 23.9463 20.0368C24.0699 20.1092 24.211 20.1453 24.3696 20.1453H30.8905C31.8163 20.1453 32.7112 20.0301 33.5757 19.7998C34.4397 19.5692 35.2442 19.2419 35.9894 18.8169C36.7346 18.3921 37.4134 17.8768 38.0264 17.2714C38.6391 16.666 39.166 15.9902 39.607 15.2446C40.0477 14.499 40.3874 13.6947 40.6255 12.8315ZM61.1002 19.5827C61.1531 19.4428 61.1795 19.2959 61.1795 19.1422V3.86383C61.1795 3.70131 61.1531 3.55671 61.1002 3.43002C61.0472 3.30358 60.9588 3.19065 60.8357 3.09122C60.7385 2.99179 60.624 2.92844 60.4918 2.90144C60.3595 2.87418 60.2448 2.86068 60.1478 2.86068H58.1771C58.0006 2.86068 57.864 2.8721 57.767 2.89443C57.67 2.91728 57.5885 2.96219 57.5223 3.03021C57.4562 3.09797 57.3944 3.20181 57.3372 3.34201C57.2797 3.4822 57.207 3.66497 57.1188 3.89109L56.7353 5.12478C56.4972 4.77222 56.2196 4.44459 55.902 4.14162C55.5846 3.83891 55.2295 3.57903 54.8371 3.36226C54.4448 3.14548 54.0126 2.97361 53.541 2.84718C53.0694 2.72075 52.56 2.6574 52.0134 2.6574C50.814 2.6574 49.6899 2.8856 48.6404 3.34201C47.591 3.79841 46.6784 4.42642 45.9025 5.22629C45.1264 6.02616 44.5137 6.96623 44.0638 8.04597C43.6142 9.12622 43.3893 10.2945 43.3893 11.5505C43.3893 12.3821 43.4906 13.1796 43.6935 13.9431C43.8964 14.7072 44.1852 15.4188 44.5601 16.0784C44.9347 16.7381 45.382 17.3371 45.9025 17.8747C46.4228 18.4126 47.0024 18.8735 47.6419 19.2574C48.281 19.6417 48.969 19.9376 49.7053 20.1453C50.4414 20.3533 51.2109 20.4574 52.0134 20.4574C52.463 20.4574 52.8971 20.4008 53.3161 20.2878C53.7348 20.1746 54.1274 20.0259 54.4934 19.8405C54.8592 19.6552 55.1943 19.4451 55.4985 19.2099C55.8027 18.9752 56.074 18.7356 56.3121 18.4916L56.4838 19.1014C56.5368 19.2554 56.5877 19.3976 56.6361 19.5285C56.6844 19.6596 56.744 19.7704 56.8146 19.8608C56.885 19.9511 56.9778 20.0212 57.0925 20.0708C57.207 20.1206 57.3569 20.1453 57.5421 20.1453H60.1478C60.2448 20.1453 60.3595 20.1318 60.4918 20.1048C60.624 20.0776 60.7385 20.0145 60.8357 19.915C60.9588 19.8335 61.0472 19.7229 61.1002 19.5827ZM48.1509 11.5504C48.1509 12.1467 48.2411 12.7049 48.4219 13.2246C48.6028 13.7444 48.8606 14.194 49.1957 14.5736C49.5308 14.9532 49.9344 15.2538 50.406 15.475C50.8776 15.6967 51.4002 15.807 51.9734 15.807C52.5641 15.807 53.113 15.6967 53.6201 15.475C54.1272 15.2538 54.5679 14.9532 54.9428 14.5736C55.3174 14.194 55.6108 13.7444 55.8225 13.2246C56.034 12.7049 56.1399 12.1467 56.1399 11.5504C56.1399 10.972 56.034 10.4205 55.8225 9.89638C55.6108 9.37248 55.3174 8.9114 54.9428 8.51367C54.5679 8.11594 54.1272 7.80207 53.6201 7.57153C53.113 7.34099 52.5641 7.22572 51.9734 7.22572C51.4002 7.22572 50.8776 7.34099 50.406 7.57153C49.9344 7.80207 49.5308 8.11594 49.1957 8.51367C48.8606 8.9114 48.6028 9.37248 48.4219 9.89638C48.2411 10.4205 48.1509 10.972 48.1509 11.5504ZM69.4199 19.2461V23.5651C69.4199 23.8052 69.2299 24 68.9956 24H64.7785C64.5439 24 64.3539 23.8052 64.3539 23.5651V3.86371C64.3539 3.68302 64.3871 3.534 64.4532 3.4164C64.5193 3.29905 64.6009 3.19053 64.6979 3.0911C64.8124 2.99167 64.9314 2.92832 65.0551 2.90132C65.1784 2.87406 65.2975 2.86056 65.4122 2.86056H67.4095C67.5769 2.86056 67.7157 2.88782 67.8261 2.94208C67.9363 2.99608 68.0265 3.07085 68.0972 3.16561C68.1678 3.26063 68.2271 3.36889 68.2757 3.49091C68.3241 3.61293 68.3705 3.74637 68.4148 3.89097L68.7127 4.77081C68.8236 5.09844 69.2449 5.1688 69.4505 4.89361C69.5392 4.77496 69.6284 4.65528 69.7175 4.53482C69.9688 4.19602 70.2664 3.88864 70.6104 3.61293C70.9544 3.33722 71.3642 3.10927 71.8404 2.92832C72.3166 2.74763 72.8987 2.65729 73.5864 2.65729C74.7944 2.65729 75.9076 2.88549 76.9261 3.34189C77.9446 3.79829 78.8221 4.4263 79.5584 5.22617C80.2945 6.02605 80.87 6.96611 81.2844 8.04611C81.6988 9.12611 81.906 10.2944 81.906 11.5504C81.906 12.7976 81.6988 13.9635 81.2844 15.0479C80.87 16.1326 80.2945 17.0747 79.5584 17.8746C78.8221 18.6745 77.9446 19.3048 76.9261 19.7659C75.9076 20.2267 74.7944 20.4573 73.5864 20.4573C73.0129 20.4573 72.5192 20.3872 72.1051 20.247C71.6905 20.107 71.3224 19.924 71.0005 19.6981C70.6785 19.4723 70.3943 19.2236 70.1474 18.9523C69.8872 18.6664 69.4199 18.8552 69.4199 19.2461ZM69.0503 11.347C69.0767 10.7868 69.2069 10.258 69.4407 9.7608C69.674 9.2639 69.9784 8.83216 70.3533 8.4661C70.7279 8.1003 71.1644 7.81109 71.6626 7.59873C72.1608 7.38636 72.6877 7.27992 73.2432 7.27992C73.8075 7.27992 74.3232 7.39311 74.7908 7.61898C75.2582 7.84484 75.6591 8.15223 75.9945 8.54061C76.3294 8.92951 76.5898 9.38358 76.7749 9.90307C76.9601 10.4231 77.0525 10.9722 77.0525 11.5503C77.0525 12.1469 76.9601 12.7074 76.7749 13.2313C76.5898 13.7558 76.3294 14.2098 75.9945 14.5938C75.6591 14.978 75.2582 15.2831 74.7908 15.5089C74.3232 15.7348 73.8075 15.8477 73.2432 15.8477C72.67 15.8477 72.1277 15.7348 71.6162 15.5089C71.1048 15.2831 70.6595 14.978 70.2803 14.5938C69.9012 14.2098 69.6013 13.7558 69.3811 13.2313C69.1605 12.7074 69.0503 12.1469 69.0503 11.5503V11.347ZM89.6172 19.2332V23.5703C89.6172 23.8076 89.4295 24 89.1979 24H84.9706C84.7391 24 84.5512 23.8076 84.5512 23.5703V3.86371C84.5512 3.68302 84.5844 3.534 84.6505 3.4164C84.7166 3.29905 84.7982 3.19053 84.8952 3.0911C85.0097 2.99167 85.1287 2.92832 85.2523 2.90132C85.3757 2.87406 85.4947 2.86056 85.6095 2.86056H87.6067C87.7742 2.86056 87.913 2.88782 88.0234 2.94208C88.1336 2.99608 88.2238 3.07085 88.2944 3.16561C88.3651 3.26063 88.4244 3.36889 88.473 3.49091C88.5214 3.61293 88.5677 3.74637 88.6121 3.89097L88.913 4.7799C89.0227 5.10363 89.4388 5.17295 89.6422 4.90088C89.7327 4.7799 89.8236 4.65788 89.9148 4.53482C90.1661 4.19602 90.4637 3.88864 90.8077 3.61293C91.1516 3.33722 91.5615 3.10927 92.0377 2.92832C92.5139 2.74763 93.096 2.65729 93.7837 2.65729C94.9916 2.65729 96.1049 2.88549 97.1234 3.34189C98.1419 3.79829 99.0193 4.4263 99.7557 5.22617C100.492 6.02605 101.067 6.96611 101.482 8.04611C101.896 9.12611 102.103 10.2944 102.103 11.5504C102.103 12.7976 101.896 13.9635 101.482 15.0479C101.067 16.1326 100.492 17.0747 99.7557 17.8746C99.0193 18.6745 98.1419 19.3048 97.1234 19.7659C96.1049 20.2267 94.9916 20.4573 93.7837 20.4573C93.2102 20.4573 92.7165 20.3872 92.3024 20.247C91.8877 20.107 91.5197 19.924 91.1977 19.6981C90.8758 19.4723 90.5916 19.2236 90.3446 18.9523C90.3421 18.9497 90.3396 18.9468 90.3373 18.9442C90.0797 18.661 89.6172 18.8461 89.6172 19.2332ZM89.2467 11.347C89.273 10.7868 89.4032 10.258 89.637 9.7608C89.8703 9.2639 90.1747 8.83216 90.5496 8.4661C90.9243 8.1003 91.3607 7.81109 91.8589 7.59873C92.3572 7.38636 92.884 7.27992 93.4395 7.27992C94.0039 7.27992 94.5196 7.39311 94.9872 7.61898C95.4545 7.84484 95.8555 8.15223 96.1908 8.54061C96.5257 8.92951 96.7861 9.38358 96.9712 9.90307C97.1564 10.4231 97.2489 10.9722 97.2489 11.5503C97.2489 12.1469 97.1564 12.7074 96.9712 13.2313C96.7861 13.7558 96.5257 14.2098 96.1908 14.5938C95.8555 14.978 95.4545 15.2831 94.9872 15.5089C94.5196 15.7348 94.0039 15.8477 93.4395 15.8477C92.8663 15.8477 92.324 15.7348 91.8126 15.5089C91.3012 15.2831 90.8559 14.978 90.4767 14.5938C90.0975 14.2098 89.7976 13.7558 89.5775 13.2313C89.3568 12.7074 89.2467 12.1469 89.2467 11.5503V11.347ZM107.983 23.441L109.188 20.2296C109.225 20.132 109.224 20.0234 109.185 19.9266L102.936 4.22978C102.795 3.8684 102.793 3.55868 102.93 3.30114C103.066 3.0436 103.368 2.91483 103.836 2.91483H107.103C107.323 2.91483 107.504 2.98493 107.645 3.12486C107.786 3.26506 107.892 3.439 107.962 3.64669L111.323 13.4445C111.449 13.8122 111.957 13.8103 112.081 13.442L115.369 3.64669C115.466 3.35774 115.59 3.16355 115.74 3.06385C115.89 2.96468 116.097 2.91483 116.362 2.91483H119.761C120.007 2.91483 120.202 2.94858 120.343 3.01634C120.484 3.0841 120.583 3.17471 120.64 3.28764C120.698 3.40057 120.717 3.52727 120.7 3.6672C120.682 3.80739 120.647 3.94499 120.594 4.0805C120.259 4.93022 119.893 5.85887 119.496 6.86643C119.099 7.87425 118.687 8.92258 118.26 10.0117C117.832 11.1007 117.398 12.208 116.957 13.3332C116.516 14.4583 116.086 15.563 115.667 16.6477C115.248 17.7321 114.845 18.7739 114.457 19.7724C114.069 20.7709 113.714 21.6884 113.392 22.5246C113.225 22.9581 113.07 23.3616 112.927 23.7396C112.867 23.8972 112.719 24 112.553 24H108.357C108.075 24 107.881 23.7105 107.983 23.441Z" fill="#1F2431"/>
<path fill-rule="evenodd" clip-rule="evenodd" d="M2.85133 8.64014C4.42607 8.64014 5.70265 7.35072 5.70265 5.76013C5.70265 4.16955 4.42607 2.88013 2.85133 2.88013C1.27658 2.88013 0 4.16955 0 5.76013C0 7.35072 1.27658 8.64014 2.85133 8.64014Z" fill="#315EFB"/>
<path fill-rule="evenodd" clip-rule="evenodd" d="M12.356 18.24C13.9307 18.24 15.2073 16.9506 15.2073 15.36C15.2073 13.7694 13.9307 12.48 12.356 12.48C10.7812 12.48 9.50464 13.7694 9.50464 15.36C9.50464 16.9506 10.7812 18.24 12.356 18.24Z" fill="#315EFB"/>
<path fill-rule="evenodd" clip-rule="evenodd" d="M12.2831 3.84034C10.668 3.84034 9.35864 5.16283 9.35864 6.79419C9.35864 8.42556 10.668 9.74805 12.2831 9.74805C13.8982 9.74805 15.2075 8.42556 15.2075 6.79419C15.2075 5.16283 13.8982 3.84034 12.2831 3.84034Z" fill="#315EFB"/>
<path fill-rule="evenodd" clip-rule="evenodd" d="M2.92493 13.2925C1.3098 13.2925 0.000488758 14.615 0.000488758 16.2463C0.000488758 17.8777 1.3098 19.2002 2.92493 19.2002C4.54005 19.2002 5.84937 17.8777 5.84937 16.2463C5.84937 14.615 4.54005 13.2925 2.92493 13.2925Z" fill="#315EFB"/>
</svg>
